<?xml version="1.0" encoding="UTF-8"?>
<svg xmlns="http://www.w3.org/2000/svg" width="52" height="52" viewBox="0 0 52 52" fill="none">
  <g id="certificate">
    <path id="Vector" d="M45.1741 10.0312H6.82414C5.67539 10.0312 4.74414 10.9625 4.74414 12.1113V43.7229C4.74414 44.8717 5.67539 45.8029 6.82414 45.8029H45.1741C46.3229 45.8029 47.2541 44.8717 47.2541 43.7229V12.1113C47.2541 10.9625 46.3229 10.0312 45.1741 10.0312Z" fill="url(#paint0_linear_7410_3666)"></path>
    <path id="Vector_2" d="M43.7876 39.4551V16.8135C41.9893 16.8135 40.5376 15.3618 40.5376 13.5635H11.4609C11.4609 15.3618 10.0093 16.8135 8.21094 16.8135V39.4551C10.0093 39.4551 11.4609 40.9068 11.4609 42.7051H40.5159C40.5159 40.9068 41.9676 39.4551 43.7659 39.4551H43.7876Z" fill="url(#paint1_linear_7410_3666)"></path>
    <path id="Vector_3" d="M35.3775 12.9577C35.3775 13.8873 34.2293 14.5981 33.9559 15.4457C33.6825 16.2933 34.1746 17.5783 33.6552 18.2891C33.1357 19 31.7688 18.9453 31.058 19.4648C30.3472 19.9843 29.9918 21.2966 29.1443 21.57C28.2968 21.8434 27.2579 20.9959 26.3558 20.9959C25.4536 20.9959 24.3874 21.8434 23.5672 21.57C22.747 21.2966 22.3643 19.9843 21.6535 19.4648C20.9427 18.9453 19.5758 19.0273 19.0563 18.2891C18.5369 17.5509 19.029 16.3206 18.7556 15.4457C18.4822 14.5708 17.334 13.8873 17.334 12.9577C17.334 12.0281 18.4822 11.3172 18.7556 10.4697C19.029 9.62211 18.5369 8.33709 19.0563 7.62623C19.5758 6.91537 20.9427 6.97005 21.6535 6.45058C22.3643 5.9311 22.7197 4.61875 23.5672 4.34534C24.4147 4.07193 25.4536 4.91949 26.3558 4.91949C27.2579 4.91949 28.3241 4.07193 29.1443 4.34534C29.9645 4.61875 30.3472 5.9311 31.058 6.45058C31.7688 6.97005 33.1357 6.88803 33.6552 7.62623C34.1746 8.36443 33.6825 9.59477 33.9559 10.4697C34.2293 11.3446 35.3775 12.0281 35.3775 12.9577Z" fill="url(#paint2_linear_7410_3666)"></path>
    <path id="Vector_4" d="M26.331 7.78906L27.9987 11.2067L31.7714 11.7535L29.0376 14.4055L29.6937 18.1239L26.331 16.3741L22.9684 18.1239L23.5972 14.4055L20.8906 11.7535L24.636 11.2067L26.331 7.78906Z" fill="url(#paint3_linear_7410_3666)"></path>
    <path id="Vector_5" d="M38.8273 25.4582H13.1739C12.9139 25.4582 12.6973 25.2415 12.6973 24.9815C12.6973 24.7215 12.9139 24.5049 13.1739 24.5049H38.8273C39.0873 24.5049 39.3039 24.7215 39.3039 24.9815C39.3039 25.2415 39.0873 25.4582 38.8273 25.4582Z" fill="url(#paint4_linear_7410_3666)"></path>
    <path id="Vector_6" d="M38.8273 28.6867H13.1739C12.9139 28.6867 12.6973 28.4701 12.6973 28.2101C12.6973 27.9501 12.9139 27.7334 13.1739 27.7334H38.8273C39.0873 27.7334 39.3039 27.9501 39.3039 28.2101C39.3039 28.4701 39.0873 28.6867 38.8273 28.6867Z" fill="url(#paint5_linear_7410_3666)"></path>
    <path id="Vector_7" d="M38.8273 31.9152H13.1739C12.9139 31.9152 12.6973 31.6986 12.6973 31.4386C12.6973 31.1786 12.9139 30.9619 13.1739 30.9619H38.8273C39.0873 30.9619 39.3039 31.1786 39.3039 31.4386C39.3039 31.6986 39.0873 31.9152 38.8273 31.9152Z" fill="url(#paint6_linear_7410_3666)"></path>
    <path id="Vector_8" d="M30.5289 35.1438H13.1739C12.9139 35.1438 12.6973 34.9271 12.6973 34.6671C12.6973 34.4071 12.9139 34.1904 13.1739 34.1904H30.5289C30.7889 34.1904 31.0056 34.4071 31.0056 34.6671C31.0056 34.9271 30.7889 35.1438 30.5289 35.1438Z" fill="url(#paint7_linear_7410_3666)"></path>
  </g>
  <defs>
    <linearGradient id="paint0_linear_7410_3666" x1="43.9825" y1="4.63625" x2="11.9149" y2="69.3332" gradientUnits="userSpaceOnUse">
      <stop stop-color="#139ED9"></stop>
      <stop offset="0.13" stop-color="#1398D2"></stop>
      <stop offset="0.3" stop-color="#1389C1"></stop>
      <stop offset="0.5" stop-color="#1570A3"></stop>
      <stop offset="0.72" stop-color="#164E7B"></stop>
      <stop offset="0.96" stop-color="#182248"></stop>
      <stop offset="1" stop-color="#191B3F"></stop>
    </linearGradient>
    <linearGradient id="paint1_linear_7410_3666" x1="28.8376" y1="14.1918" x2="19.4993" y2="60.0168" gradientUnits="userSpaceOnUse">
      <stop stop-color="#8ED3FF"></stop>
      <stop offset="0.11" stop-color="#86C7F3"></stop>
      <stop offset="0.3" stop-color="#74AAD4"></stop>
      <stop offset="0.671836" stop-color="#557AA2"></stop>
      <stop offset="0.87" stop-color="#2B385D"></stop>
      <stop offset="1" stop-color="#191B3F"></stop>
    </linearGradient>
    <linearGradient id="paint2_linear_7410_3666" x1="19.111" y1="2.45882" x2="35.8714" y2="26.8729" gradientUnits="userSpaceOnUse">
      <stop offset="0.19" stop-color="#139ED9"></stop>
      <stop offset="0.29" stop-color="#1398D2"></stop>
      <stop offset="0.43" stop-color="#1388C0"></stop>
      <stop offset="0.6" stop-color="#156FA2"></stop>
      <stop offset="0.79" stop-color="#164B78"></stop>
      <stop offset="0.98" stop-color="#181E43"></stop>
      <stop offset="1" stop-color="#191B3F"></stop>
    </linearGradient>
    <linearGradient id="paint3_linear_7410_3666" x1="23.9526" y1="10.3591" x2="32.401" y2="21.7322" gradientUnits="userSpaceOnUse">
      <stop stop-color="#8ED3FF"></stop>
      <stop offset="0.11" stop-color="#86C7F3"></stop>
      <stop offset="0.3" stop-color="#74AAD4"></stop>
      <stop offset="0.56" stop-color="#557AA2"></stop>
      <stop offset="0.87" stop-color="#2B385D"></stop>
      <stop offset="1" stop-color="#191B3F"></stop>
    </linearGradient>
    <linearGradient id="paint4_linear_7410_3666" x1="10.3139" y1="23.6599" x2="71.3056" y2="28.7949" gradientUnits="userSpaceOnUse">
      <stop stop-color="#191B3F"></stop>
      <stop offset="1" stop-color="#139ED9"></stop>
    </linearGradient>
    <linearGradient id="paint5_linear_7410_3666" x1="9.79393" y1="26.8451" x2="70.8073" y2="31.9801" gradientUnits="userSpaceOnUse">
      <stop stop-color="#191B3F"></stop>
      <stop offset="1" stop-color="#139ED9"></stop>
    </linearGradient>
    <linearGradient id="paint6_linear_7410_3666" x1="9.79393" y1="30.0736" x2="70.8073" y2="35.2302" gradientUnits="userSpaceOnUse">
      <stop stop-color="#191B3F"></stop>
      <stop offset="1" stop-color="#139ED9"></stop>
    </linearGradient>
    <linearGradient id="paint7_linear_7410_3666" x1="10.3573" y1="33.6921" x2="52.3473" y2="37.2238" gradientUnits="userSpaceOnUse">
      <stop stop-color="#191B3F"></stop>
      <stop offset="1" stop-color="#139ED9"></stop>
    </linearGradient>
  </defs>
</svg>
