<?xml version="1.0" encoding="UTF-8"?>
<svg xmlns="http://www.w3.org/2000/svg" width="52" height="52" viewBox="0 0 52 52" fill="none">
  <g id="check">
    <path id="Vector" d="M44.5463 26C44.5463 27.9284 42.1413 29.4667 41.578 31.2217C41.0146 32.9767 42.0113 35.685 40.928 37.18C39.8446 38.675 36.9846 38.545 35.4463 39.65C33.908 40.755 33.2146 43.5067 31.4163 44.0917C29.618 44.6767 27.473 42.8567 25.5446 42.8567C23.6163 42.8567 21.4063 44.655 19.673 44.0917C17.9396 43.5284 17.138 40.7334 15.643 39.65C14.148 38.5667 11.2663 38.6967 10.1613 37.18C9.0563 35.6634 10.0963 33.02 9.5113 31.2217C8.9263 29.4234 6.54297 27.95 6.54297 26C6.54297 24.05 8.94797 22.5334 9.5113 20.7784C10.0746 19.0234 9.07797 16.315 10.1613 14.82C11.2446 13.325 14.1046 13.455 15.643 12.35C17.1813 11.245 17.8746 8.49337 19.673 7.90837C21.4713 7.32337 23.6163 9.14337 25.5446 9.14337C27.473 9.14337 29.683 7.34504 31.4163 7.90837C33.1496 8.47171 33.9513 11.2667 35.4463 12.35C36.9413 13.4334 39.823 13.3034 40.928 14.82C42.033 16.3367 40.993 18.98 41.578 20.7784C42.163 22.5767 44.5463 24.05 44.5463 26Z" fill="url(#paint0_linear_7410_7856)"></path>
    <path id="Vector_2" d="M45.4997 26.2381C45.4997 28.1448 43.1164 29.6615 42.553 31.3948C41.9897 33.1281 42.9864 35.7931 41.903 37.2881C40.8197 38.7831 38.003 38.6315 36.508 39.7148C35.013 40.7981 34.3197 43.5281 32.5214 44.1131C30.723 44.6981 28.6214 42.8998 26.7147 42.8998C24.808 42.8998 22.6414 44.6765 20.908 44.1131C19.1747 43.5498 18.4164 40.7981 16.9214 39.7148C15.4264 38.6315 12.6097 38.7831 11.5264 37.2881C10.443 35.7931 11.4614 33.1931 10.8764 31.3948C10.2914 29.5965 7.92969 28.1665 7.92969 26.2381C7.92969 24.3098 10.313 22.8148 10.8764 21.0815C11.4397 19.3481 10.443 16.6831 11.5264 15.1881C12.6097 13.6931 15.4264 13.8448 16.9214 12.7615C18.4164 11.6781 19.1097 8.94813 20.908 8.36313C22.7064 7.77813 24.808 9.57646 26.7147 9.57646C28.6214 9.57646 30.788 7.79979 32.5214 8.36313C34.2547 8.92646 35.013 11.6781 36.508 12.7615C38.003 13.8448 40.8197 13.6931 41.903 15.1881C42.9864 16.6831 41.968 19.2831 42.553 21.0815C43.138 22.8798 45.4997 24.3098 45.4997 26.2381Z" fill="url(#paint1_linear_7410_7856)"></path>
    <path id="Vector_3" d="M39.7152 26.2383C39.7152 27.56 38.0685 28.6 37.6785 29.8133C37.2885 31.0267 37.9819 32.8683 37.2235 33.8867C36.4652 34.905 34.5152 34.8183 33.4752 35.5767C32.4352 36.335 31.9585 38.22 30.7235 38.61C29.4885 39 28.0369 37.765 26.6935 37.765C25.3502 37.765 23.8769 39 22.6635 38.61C21.4502 38.22 20.9302 36.3133 19.9119 35.5767C18.8935 34.84 16.9219 34.9267 16.1635 33.8867C15.4052 32.8467 16.1202 31.0483 15.7085 29.8133C15.2969 28.5783 13.6719 27.5817 13.6719 26.2383C13.6719 24.895 15.3185 23.8767 15.7085 22.6633C16.0985 21.45 15.4052 19.6083 16.1635 18.59C16.9219 17.5717 18.8719 17.6583 19.9119 16.9C20.9519 16.1417 21.4285 14.2567 22.6635 13.8667C23.8985 13.4767 25.3502 14.7117 26.6935 14.7117C28.0369 14.7117 29.5102 13.4767 30.7235 13.8667C31.9369 14.2567 32.4569 16.1633 33.4752 16.9C34.4935 17.6367 36.4652 17.55 37.2235 18.59C37.9819 19.63 37.2669 21.4283 37.6785 22.6633C38.0902 23.8983 39.7152 24.895 39.7152 26.2383Z" fill="url(#paint2_linear_7410_7856)"></path>
    <path id="Vector (Stroke)" fill-rule="evenodd" clip-rule="evenodd" d="M34.0648 20.9149C34.6475 21.3837 34.7398 22.2361 34.271 22.8188L26.6986 32.2301C25.9457 33.2071 24.552 33.2976 23.6623 32.5266L23.5637 32.4411L20.0381 27.9399C19.577 27.3512 19.6804 26.5 20.2692 26.0389C20.858 25.5777 21.7091 25.6811 22.1703 26.2699L25.0549 29.9527L32.1608 21.121C32.6297 20.5383 33.4821 20.446 34.0648 20.9149Z" fill="url(#paint3_linear_7410_7856)"></path>
  </g>
  <defs>
    <linearGradient id="paint0_linear_7410_7856" x1="45.4346" y1="20.1284" x2="-2.2537" y2="34.19" gradientUnits="userSpaceOnUse">
      <stop stop-color="#139ED9"></stop>
      <stop offset="0.86" stop-color="#191B3F"></stop>
    </linearGradient>
    <linearGradient id="paint1_linear_7410_7856" x1="43.658" y1="7.9948" x2="3.33635" y2="51.3931" gradientUnits="userSpaceOnUse">
      <stop stop-color="#139ED9"></stop>
      <stop offset="0.94" stop-color="#191B3F"></stop>
    </linearGradient>
    <linearGradient id="paint2_linear_7410_7856" x1="30.0085" y1="13.39" x2="20.9302" y2="48.88" gradientUnits="userSpaceOnUse">
      <stop stop-color="#8ED3FF"></stop>
      <stop offset="0.11" stop-color="#86C7F3"></stop>
      <stop offset="0.3" stop-color="#74AAD4"></stop>
      <stop offset="0.56" stop-color="#557AA2"></stop>
      <stop offset="0.87" stop-color="#2B385D"></stop>
      <stop offset="1" stop-color="#191B3F"></stop>
    </linearGradient>
    <linearGradient id="paint3_linear_7410_7856" x1="29.8576" y1="18.8716" x2="23.3792" y2="32.4783" gradientUnits="userSpaceOnUse">
      <stop stop-color="#139ED9"></stop>
      <stop offset="1" stop-color="#191B3F"></stop>
    </linearGradient>
  </defs>
</svg>
