<?xml version="1.0" encoding="UTF-8"?>
<svg xmlns="http://www.w3.org/2000/svg" width="73" height="72" viewBox="0 0 73 72" fill="none">
  <path d="M14.9473 15.3571C16.7318 11.82 21.3204 8.76096 27.5341 10.1312C31.6766 11.0553 33.8434 15.7394 34.0346 18.7985C34.3852 24.598 31.0393 33.8389 34.0346 43.3347C35.4367 47.8277 3.63516 44.7368 8.66988 38.8417C13.8958 32.7236 11.9839 21.284 14.9792 15.3252L14.9473 15.3571Z" fill="url(#paint0_linear_7410_7988)"></path>
  <path d="M28.4272 36.511C28.4272 36.511 36.2023 38.1361 37.4769 43.0115C38.0186 45.019 37.6044 50.1493 37.4132 51.7744C37.3176 52.6348 37.2857 54.1962 36.4253 54.4192C34.7365 54.8654 30.5621 55.0247 21.3531 55.0247C11.6023 55.0247 5.994 54.7379 4.20954 54.2281C3.6997 54.0687 3.28545 53.1128 3.18986 52.5711C2.68001 49.9263 2.2339 41.6413 6.12146 39.3789C10.7419 36.6703 14.5976 35.5869 14.5976 35.5869L28.4272 36.511Z" fill="url(#paint1_linear_7410_7988)"></path>
  <path d="M26.2308 30.8752C26.2308 30.8752 24.7331 34.4759 27.5691 36.5472C29.1305 37.6943 22.3432 43.7169 22.3432 43.7169C22.3432 43.7169 15.5559 38.9689 13.7078 35.9099C13.644 35.655 17.8184 36.0055 18.2326 28.8358C18.5513 23.1319 26.1989 30.907 26.1989 30.907L26.2308 30.8752Z" fill="url(#paint2_linear_7410_7988)"></path>
  <path d="M20.7794 18.128C23.6791 15.1646 25.113 13.0296 29.3511 15.2283C30.9125 16.0249 31.4861 17.7775 30.5939 23.0671C29.7016 28.3568 28.1402 32.1806 24.9856 32.3399C18.262 32.6586 16.7643 26.6042 16.6369 25.0428C16.5732 24.1506 14.8206 24.6604 15.2029 21.3146C15.2667 20.8366 16.0952 20.0081 16.9237 20.1993C16.9237 20.1993 19.218 19.6894 20.7794 18.0962V18.128Z" fill="url(#paint3_linear_7410_7988)"></path>
  <path d="M39.5499 16.7285C37.4468 14.8484 37.1918 9.14457 40.2509 7.20079C47.7392 2.45287 59.5613 4.30106 58.9877 15.7725C58.4141 27.244 50.0017 28.9329 49.8423 29.1559C49.683 29.379 39.518 16.7603 39.518 16.7603L39.5499 16.7285Z" fill="url(#paint4_linear_7410_7988)"></path>
  <path d="M41.6877 35.3677C41.6877 35.3677 33.6257 39.542 32.1918 44.9273C31.6182 47.126 31.682 50.9179 31.7776 52.7342C31.7776 53.4034 32.2237 53.977 32.861 54.1682C34.7092 54.7417 39.3615 55.7614 49.4946 55.7614C60.2332 55.7614 66.3832 54.8373 68.3589 54.2956C68.9325 54.1363 69.3467 53.6583 69.4742 53.0848C70.0159 50.185 70.4939 41.0397 66.2558 38.5542C61.1573 35.5908 56.9193 34.3799 56.9193 34.3799L41.6877 35.3677Z" fill="url(#paint5_linear_7410_7988)"></path>
  <path d="M44.0749 29.1523C44.0749 29.1523 44.7759 33.1036 41.6531 35.366C38.5303 37.6285 50.3205 40.6875 56.8847 34.3782C56.8847 34.3782 53.2521 34.8881 52.8379 26.8899C52.5192 20.6125 44.0749 29.1523 44.0749 29.1523Z" fill="url(#paint6_linear_7410_7988)"></path>
  <path d="M49.591 14.5578C46.6594 14.0799 42.0071 14.3348 40.6687 12.5822C39.3304 10.8296 39.1711 14.3666 40.1589 20.1661C41.1467 25.9656 41.9752 30.6179 45.4485 30.7772C52.8731 31.1277 52.6182 25.1052 53.0962 23.4801C53.5742 21.855 55.4224 24.5316 55.5179 20.8034C55.6135 17.0752 53.3192 16.1192 52.7457 17.3938C52.1721 18.6684 53.0325 15.1314 49.5591 14.5578H49.591Z" fill="url(#paint7_linear_7410_7988)"></path>
  <path d="M47.2227 36H23.9727C23.1442 36 22.4727 36.6399 22.4727 37.4293V63.0707C22.4727 63.8601 23.1442 64.5 23.9727 64.5H47.2227C48.0511 64.5 48.7227 63.8601 48.7227 63.0707V37.4293C48.7227 36.6399 48.0511 36 47.2227 36Z" fill="url(#paint8_linear_7410_7988)"></path>
  <path d="M42.3334 45.5289C42.3334 46.2272 41.4799 46.7704 41.2859 47.3911C41.0919 48.0119 41.4411 48.9818 41.0531 49.525C40.6652 50.0681 39.6564 49.9906 39.1133 50.4173C38.5701 50.8441 38.3373 51.7752 37.6778 52.008C37.0182 52.2408 36.2811 51.5812 35.5827 51.5812C34.8844 51.5812 34.1084 52.202 33.4877 52.008C32.8669 51.814 32.5954 50.8053 32.0522 50.4173C31.509 50.0294 30.5003 50.0681 30.1123 49.525C29.7244 48.9818 30.1123 48.0507 29.8796 47.3911C29.6468 46.7316 28.832 46.2272 28.832 45.5289C28.832 44.8305 29.6856 44.2874 29.8796 43.6666C30.0735 43.0459 29.7244 42.0759 30.1123 41.5328C30.5003 40.9896 31.509 41.0672 32.0522 40.6404C32.5954 40.2137 32.8281 39.2825 33.4877 39.0498C34.1472 38.817 34.8844 39.4765 35.5827 39.4765C36.2811 39.4765 37.057 38.8558 37.6778 39.0498C38.2985 39.2437 38.5701 40.2525 39.1133 40.6404C39.6564 41.0284 40.6652 40.9896 41.0531 41.5328C41.4411 42.0759 41.0531 43.0071 41.2859 43.6666C41.5187 44.3262 42.3334 44.8305 42.3334 45.5289Z" fill="url(#paint9_linear_7410_7988)"></path>
  <path d="M35.7774 41.7246L37.0189 44.2076L39.7735 44.6344L37.7948 46.5743L38.2604 49.2901L35.7774 48.0097L33.3331 49.2901L33.7987 46.5743L31.7812 44.6344L34.5358 44.2076L35.7774 41.7246Z" fill="url(#paint10_linear_7410_7988)"></path>
  <path d="M49.1722 49.0487L36.6922 55.4387C36.3022 55.6487 35.8222 55.6487 35.4322 55.4387L21.9622 49.0187C21.6322 48.8687 21.2422 49.0787 21.2422 49.4387V64.4087C21.2422 64.9487 21.6922 65.3687 22.2922 65.3687H48.9022C49.4722 65.3687 49.9522 64.9487 49.9522 64.4087V49.4687C49.9522 49.1087 49.5322 48.8987 49.2022 49.0787L49.1722 49.0487Z" fill="url(#paint11_linear_7410_7988)"></path>
  <defs>
    <linearGradient id="paint0_linear_7410_7988" x1="31.2942" y1="15.6438" x2="13.1948" y2="52.7987" gradientUnits="userSpaceOnUse">
      <stop stop-color="#139ED9"></stop>
      <stop offset="0.12" stop-color="#1394CE"></stop>
      <stop offset="0.33" stop-color="#147BB0"></stop>
      <stop offset="0.6" stop-color="#165381"></stop>
      <stop offset="0.93" stop-color="#191B3F"></stop>
    </linearGradient>
    <linearGradient id="paint1_linear_7410_7988" x1="-8.66895" y1="45" x2="37.8311" y2="45" gradientUnits="userSpaceOnUse">
      <stop stop-color="#139ED9"></stop>
      <stop offset="0.13" stop-color="#1398D3"></stop>
      <stop offset="0.3" stop-color="#138AC2"></stop>
      <stop offset="0.5" stop-color="#1472A6"></stop>
      <stop offset="0.71" stop-color="#16517F"></stop>
      <stop offset="0.94" stop-color="#18274D"></stop>
      <stop offset="1" stop-color="#191B3F"></stop>
    </linearGradient>
    <linearGradient id="paint2_linear_7410_7988" x1="16.833" y1="30" x2="27.333" y2="42" gradientUnits="userSpaceOnUse">
      <stop stop-color="#139ED9"></stop>
      <stop offset="0.13" stop-color="#1391C9"></stop>
      <stop offset="0.39" stop-color="#156EA1"></stop>
      <stop offset="0.75" stop-color="#173861"></stop>
      <stop offset="0.93" stop-color="#191B3F"></stop>
    </linearGradient>
    <linearGradient id="paint3_linear_7410_7988" x1="30.5939" y1="20.7091" x2="13.4504" y2="29.6314" gradientUnits="userSpaceOnUse">
      <stop stop-color="#8ED3FF"></stop>
      <stop offset="0.11" stop-color="#89CCF8"></stop>
      <stop offset="0.26" stop-color="#7EBAE5"></stop>
      <stop offset="0.44" stop-color="#6B9CC6"></stop>
      <stop offset="0.65" stop-color="#50729A"></stop>
      <stop offset="0.87" stop-color="#2F3E63"></stop>
      <stop offset="1" stop-color="#191B3F"></stop>
    </linearGradient>
    <linearGradient id="paint4_linear_7410_7988" x1="45.5405" y1="7.04146" x2="57.3944" y2="31.4184" gradientUnits="userSpaceOnUse">
      <stop stop-color="#139ED9"></stop>
      <stop offset="0.13" stop-color="#1394CE"></stop>
      <stop offset="0.35" stop-color="#147BB0"></stop>
      <stop offset="0.64" stop-color="#165381"></stop>
      <stop offset="0.99" stop-color="#181C40"></stop>
      <stop offset="1" stop-color="#191B3F"></stop>
    </linearGradient>
    <linearGradient id="paint5_linear_7410_7988" x1="31.7138" y1="45.0547" x2="75.332" y2="45" gradientUnits="userSpaceOnUse">
      <stop stop-color="#191B3F"></stop>
      <stop offset="0.12" stop-color="#17345D"></stop>
      <stop offset="0.32" stop-color="#165A89"></stop>
      <stop offset="0.52" stop-color="#1477AB"></stop>
      <stop offset="0.7" stop-color="#138CC4"></stop>
      <stop offset="0.79411" stop-color="#1399D3"></stop>
      <stop offset="1" stop-color="#139ED9"></stop>
    </linearGradient>
    <linearGradient id="paint6_linear_7410_7988" x1="43.6925" y1="27.3997" x2="56.1199" y2="41.0699" gradientUnits="userSpaceOnUse">
      <stop stop-color="#139ED9"></stop>
      <stop offset="0.14" stop-color="#1391C9"></stop>
      <stop offset="0.42" stop-color="#156EA1"></stop>
      <stop offset="0.81" stop-color="#173861"></stop>
      <stop offset="1" stop-color="#191B3F"></stop>
    </linearGradient>
    <linearGradient id="paint7_linear_7410_7988" x1="39.0436" y1="18.3179" x2="57.6848" y2="28.005" gradientUnits="userSpaceOnUse">
      <stop stop-color="#8ED3FF"></stop>
      <stop offset="0.11" stop-color="#86C7F3"></stop>
      <stop offset="0.3" stop-color="#74AAD4"></stop>
      <stop offset="0.56" stop-color="#557AA2"></stop>
      <stop offset="0.87" stop-color="#2B385D"></stop>
      <stop offset="1" stop-color="#191B3F"></stop>
    </linearGradient>
    <linearGradient id="paint8_linear_7410_7988" x1="48.7527" y1="33.999" x2="20.2044" y2="72.7524" gradientUnits="userSpaceOnUse">
      <stop stop-color="#139ED9"></stop>
      <stop offset="0.26" stop-color="#139BD6"></stop>
      <stop offset="0.42" stop-color="#1394CD"></stop>
      <stop offset="0.55" stop-color="#1388BF"></stop>
      <stop offset="0.67" stop-color="#1476AB"></stop>
      <stop offset="0.78" stop-color="#156090"></stop>
      <stop offset="0.88" stop-color="#17446F"></stop>
      <stop offset="0.98" stop-color="#18244A"></stop>
      <stop offset="1" stop-color="#191B3F"></stop>
    </linearGradient>
    <linearGradient id="paint9_linear_7410_7988" x1="37.2898" y1="38.8558" x2="32.5954" y2="57.2456" gradientUnits="userSpaceOnUse">
      <stop stop-color="#8ED3FF"></stop>
      <stop offset="0.11" stop-color="#86C7F3"></stop>
      <stop offset="0.3" stop-color="#74AAD4"></stop>
      <stop offset="0.56" stop-color="#557AA2"></stop>
      <stop offset="0.87" stop-color="#2B385D"></stop>
      <stop offset="1" stop-color="#191B3F"></stop>
    </linearGradient>
    <linearGradient id="paint10_linear_7410_7988" x1="37.756" y1="41.2202" x2="34.3031" y2="48.4753" gradientUnits="userSpaceOnUse">
      <stop stop-color="#139ED9"></stop>
      <stop offset="1" stop-color="#191B3F"></stop>
    </linearGradient>
    <linearGradient id="paint11_linear_7410_7988" x1="35.1622" y1="51.4187" x2="36.5722" y2="69.8387" gradientUnits="userSpaceOnUse">
      <stop stop-color="#8ED3FF"></stop>
      <stop offset="0.11" stop-color="#86C7F3"></stop>
      <stop offset="0.3" stop-color="#74AAD4"></stop>
      <stop offset="0.56" stop-color="#557AA2"></stop>
      <stop offset="0.87" stop-color="#2B385D"></stop>
      <stop offset="1" stop-color="#191B3F"></stop>
    </linearGradient>
  </defs>
</svg>
