<?xml version="1.0" encoding="UTF-8"?>
<svg xmlns="http://www.w3.org/2000/svg" width="52" height="52" viewBox="0 0 52 52" fill="none">
  <g id="students world">
    <path id="Vector" d="M18.8723 31.5903C25.4896 31.5903 30.854 26.2259 30.854 19.6086C30.854 12.9913 25.4896 7.62695 18.8723 7.62695C12.255 7.62695 6.89062 12.9913 6.89062 19.6086C6.89062 26.2259 12.255 31.5903 18.8723 31.5903Z" fill="url(#paint0_linear_7410_3614)"></path>
    <path id="Vector_2" d="M18.7425 34.1681C16.2508 34.1681 13.7808 33.5398 11.6358 32.3481C7.12917 29.8564 4.3125 25.1764 4.3125 20.1498C4.3125 18.4598 11.1375 14.8848 18.7425 14.8848C26.3475 14.8848 33.1725 18.1131 33.1725 20.1498C33.1725 27.8848 26.6942 34.1681 18.7425 34.1681ZM18.7425 15.5781C11.0292 15.5781 5.0275 19.2181 5.0275 20.1498C5.0275 24.9381 7.6925 29.3581 11.9825 31.7414C14.0408 32.8681 16.3808 33.4748 18.7642 33.4748C26.3258 33.4748 32.4792 27.4948 32.4792 20.1498C32.4792 18.8281 26.5425 15.5781 18.7642 15.5781H18.7425Z" fill="url(#paint1_linear_7410_3614)"></path>
    <path id="Vector_3" d="M18.8714 24.7219C11.0497 24.7219 4.44141 21.4719 4.44141 19.4136C4.44141 11.6353 10.9197 5.30859 18.8714 5.30859C19.0664 5.30859 19.2181 5.46026 19.2181 5.65526C19.2181 5.85026 19.0664 6.00193 18.8714 6.00193C11.3097 6.00193 5.15641 12.0253 5.15641 19.4136C5.15641 20.7569 11.0931 24.0069 18.8714 24.0069C26.6497 24.0069 32.5864 20.3453 32.5864 19.4136C32.5864 19.2186 32.7381 19.0669 32.9331 19.0669C33.1281 19.0669 33.2797 19.2186 33.2797 19.4136C33.2797 21.1253 26.4547 24.7219 18.8497 24.7219H18.8714Z" fill="url(#paint2_linear_7410_3614)"></path>
    <path id="Vector_4" d="M19.1752 34.2985C17.4852 34.2985 13.9102 27.4735 13.9102 19.8685C13.9102 12.2635 17.1385 5.43848 19.1752 5.43848C26.9102 5.43848 33.1935 11.9168 33.1935 19.8685C33.1935 20.0635 33.0418 20.2151 32.8468 20.2151C32.6518 20.2151 32.5002 20.0635 32.5002 19.8685C32.5002 12.3068 26.5202 6.15348 19.1968 6.15348C17.8752 6.15348 14.6252 12.0901 14.6252 19.8685C14.6252 27.6468 18.2652 33.6051 19.1968 33.6051C19.3918 33.6051 19.5435 33.7568 19.5435 33.9518C19.5435 34.1468 19.3918 34.2985 19.1968 34.2985H19.1752Z" fill="url(#paint3_linear_7410_3614)"></path>
    <path id="Vector_5" d="M18.439 34.1684C10.6607 34.1684 4.33398 27.6901 4.33398 19.7384C4.33398 19.5434 4.48565 19.3917 4.68065 19.3917C4.87565 19.3917 5.02732 19.5434 5.02732 19.7384C5.02732 27.3001 11.0507 33.4534 18.439 33.4534C19.7823 33.4534 23.0323 27.5167 23.0323 19.7384C23.0323 11.9601 19.3707 6.02341 18.439 6.02341C18.244 6.02341 18.0923 5.87174 18.0923 5.67674C18.0923 5.48174 18.244 5.33008 18.439 5.33008C20.1507 5.33008 23.7473 12.1551 23.7473 19.7601C23.7473 27.3651 20.4323 34.1901 18.439 34.1901V34.1684Z" fill="url(#paint4_linear_7410_3614)"></path>
    <path id="Vector_6" d="M44.7193 25.1552C45.8676 24.1152 46.0193 20.9952 44.3293 19.9335C40.2126 17.3335 33.7343 18.3518 34.0376 24.6352C34.341 30.9185 38.956 31.8502 39.0643 31.9802C39.1726 32.1102 44.7193 25.1768 44.7193 25.1768V25.1552Z" fill="url(#paint5_linear_7410_3614)"></path>
    <path id="Vector_7" d="M43.5498 35.3817C43.5498 35.3817 47.9698 37.6784 48.7498 40.625C49.0748 41.8384 49.0314 43.9184 48.9664 44.915C48.9664 45.2834 48.7281 45.5867 48.3814 45.695C47.3848 46.02 44.8281 46.5617 39.2598 46.5617C33.3664 46.5617 29.9864 46.0634 28.9248 45.76C28.5998 45.6734 28.3831 45.4134 28.3181 45.0884C28.0148 43.5067 27.7548 38.48 30.0731 37.115C32.8681 35.49 35.1864 34.8184 35.1864 34.8184L43.5281 35.36L43.5498 35.3817Z" fill="url(#paint6_linear_7410_3614)"></path>
    <path id="Vector_8" d="M42.2505 31.9586C42.2505 31.9586 41.8605 34.1252 43.5721 35.3819C45.2838 36.6386 38.8055 38.3069 35.2305 34.8402C35.2305 34.8402 37.2238 35.1219 37.4405 30.7236C37.6138 27.2786 42.2505 31.9586 42.2505 31.9586Z" fill="url(#paint7_linear_7410_3614)"></path>
    <path id="Vector_9" d="M39.2159 23.9635C40.8409 23.7035 43.3759 23.8551 44.1126 22.8801C44.8493 21.9051 44.9359 23.8551 44.3943 27.0401C43.8526 30.2251 43.3976 32.7601 41.4909 32.8685C37.4176 33.0635 37.5693 29.7701 37.2876 28.8818C37.0059 27.9935 36.0093 29.4668 35.9659 27.4085C35.9226 25.3501 37.1793 24.8518 37.4826 25.5451C37.7859 26.2385 37.3309 24.3101 39.2376 23.9851L39.2159 23.9635Z" fill="url(#paint8_linear_7410_3614)"></path>
    <path id="Vector_10" d="M29.0554 21.1686C29.0554 21.1686 28.5787 19.5002 25.7404 19.6086C19.4137 19.8469 18.9154 26.4986 19.4137 29.4669C19.9987 32.9336 21.0604 39.3252 21.0604 39.3252C21.0604 39.3252 24.2237 41.9686 26.2604 38.1769C27.9937 34.9269 29.3154 21.5369 29.0554 21.1686Z" fill="url(#paint9_linear_7410_3614)"></path>
    <path id="Vector_11" d="M25.2419 21.4937C25.1335 20.6053 25.7835 20.042 27.8202 20.0853C29.6185 20.1287 29.3802 21.472 29.3802 21.472H25.2419V21.4937Z" fill="url(#paint10_linear_7410_3614)"></path>
    <path id="Vector_12" d="M21.3635 24.9821C22.4035 21.8621 25.6535 20.3238 29.2068 21.1038C31.5468 21.6238 32.3701 23.5738 32.4785 25.3071C32.6735 28.6005 30.5718 31.9155 25.8485 33.7355C23.0751 34.8188 28.9685 34.9921 24.9385 33.1721C22.7068 32.1538 20.1718 28.5571 21.3635 24.9821Z" fill="url(#paint11_linear_7410_3614)"></path>
    <path id="Vector_13" d="M29.7263 36.118C29.7263 36.118 34.1463 37.028 34.883 39.8014C35.1863 40.9497 34.948 43.853 34.8613 44.7847C34.818 45.283 34.7963 46.1497 34.298 46.3014C33.3447 46.5614 30.9613 46.648 25.718 46.648C20.1713 46.648 16.9863 46.4964 15.968 46.193C15.6647 46.1064 15.448 45.543 15.383 45.2397C15.1013 43.7447 14.8413 39.0214 17.0513 37.7214C19.6947 36.183 21.883 35.5547 21.883 35.5547L29.748 36.0747L29.7263 36.118Z" fill="url(#paint12_linear_7410_3614)"></path>
    <path id="Vector_14" d="M28.4707 32.9117C28.4707 32.9117 27.6257 34.97 29.229 36.14C30.1174 36.79 26.2607 40.235 26.2607 40.235C26.2607 40.235 22.404 37.5267 21.3424 35.7934C21.299 35.6634 23.6824 35.8367 23.9207 31.7634C24.094 28.5134 28.449 32.9334 28.449 32.9334L28.4707 32.9117Z" fill="url(#paint13_linear_7410_3614)"></path>
    <path id="Vector_15" d="M25.372 25.6537C27.0186 23.9637 27.842 22.7504 30.247 24.007C31.1353 24.462 31.4603 25.4587 30.9403 28.4704C30.4203 31.482 29.532 33.6704 27.7553 33.757C23.9203 33.952 23.0753 30.4854 23.0103 29.6187C22.967 29.0987 21.9703 29.402 22.2086 27.4954C22.252 27.2137 22.707 26.7587 23.1836 26.867C23.1836 26.867 24.4836 26.5854 25.372 25.6754V25.6537Z" fill="url(#paint14_linear_7410_3614)"></path>
  </g>
  <defs>
    <linearGradient id="paint0_linear_7410_3614" x1="6.89062" y1="19.6086" x2="30.8756" y2="19.6086" gradientUnits="userSpaceOnUse">
      <stop stop-color="#139ED9"></stop>
      <stop offset="1" stop-color="#191B3F"></stop>
    </linearGradient>
    <linearGradient id="paint1_linear_7410_3614" x1="28.2542" y1="19.1964" x2="2.51417" y2="31.8931" gradientUnits="userSpaceOnUse">
      <stop offset="0.02" stop-color="#8ED3FF"></stop>
      <stop offset="1" stop-color="#191B3F" stop-opacity="0"></stop>
    </linearGradient>
    <linearGradient id="paint2_linear_7410_3614" x1="8.70974" y1="25.0036" x2="32.4997" y2="5.02693" gradientUnits="userSpaceOnUse">
      <stop stop-color="#8ED3FF"></stop>
      <stop offset="0.09" stop-color="#8ACDF8" stop-opacity="0.97"></stop>
      <stop offset="0.22" stop-color="#7FBCE7" stop-opacity="0.88"></stop>
      <stop offset="0.39" stop-color="#6FA2CC" stop-opacity="0.74"></stop>
      <stop offset="0.58" stop-color="#577DA5" stop-opacity="0.53"></stop>
      <stop offset="0.79" stop-color="#394E75" stop-opacity="0.28"></stop>
      <stop offset="1" stop-color="#191B3F" stop-opacity="0"></stop>
    </linearGradient>
    <linearGradient id="paint3_linear_7410_3614" x1="27.2135" y1="35.2951" x2="18.9802" y2="2.29681" gradientUnits="userSpaceOnUse">
      <stop stop-color="#1A1D42" stop-opacity="0.02"></stop>
      <stop offset="0.13" stop-color="#35476D" stop-opacity="0.24"></stop>
      <stop offset="0.25" stop-color="#4D6C94" stop-opacity="0.45"></stop>
      <stop offset="0.37" stop-color="#618CB5" stop-opacity="0.62"></stop>
      <stop offset="0.5" stop-color="#71A5CF" stop-opacity="0.75"></stop>
      <stop offset="0.62" stop-color="#7DB9E4" stop-opacity="0.86"></stop>
      <stop offset="0.74" stop-color="#86C7F3" stop-opacity="0.94"></stop>
      <stop offset="0.87" stop-color="#8CD0FC" stop-opacity="0.98"></stop>
      <stop offset="1" stop-color="#8ED3FF"></stop>
    </linearGradient>
    <linearGradient id="paint4_linear_7410_3614" x1="10.834" y1="13.6717" x2="23.1623" y2="30.6801" gradientUnits="userSpaceOnUse">
      <stop stop-color="#191B3F" stop-opacity="0"></stop>
      <stop offset="0.12" stop-color="#324268" stop-opacity="0.21"></stop>
      <stop offset="0.24" stop-color="#4A688F" stop-opacity="0.42"></stop>
      <stop offset="0.37" stop-color="#5E89B1" stop-opacity="0.6"></stop>
      <stop offset="0.5" stop-color="#6FA3CD" stop-opacity="0.74"></stop>
      <stop offset="0.63" stop-color="#7DB8E3" stop-opacity="0.86"></stop>
      <stop offset="0.75" stop-color="#86C7F2" stop-opacity="0.94"></stop>
      <stop offset="0.88" stop-color="#8CD0FB" stop-opacity="0.98"></stop>
      <stop offset="1" stop-color="#8ED3FF"></stop>
    </linearGradient>
    <linearGradient id="paint5_linear_7410_3614" x1="41.426" y1="19.8468" x2="34.926" y2="33.2152" gradientUnits="userSpaceOnUse">
      <stop stop-color="#139ED9"></stop>
      <stop offset="0.13" stop-color="#1394CE"></stop>
      <stop offset="0.35" stop-color="#147BB0"></stop>
      <stop offset="0.64" stop-color="#165381"></stop>
      <stop offset="0.99" stop-color="#181C40"></stop>
      <stop offset="1" stop-color="#191B3F"></stop>
    </linearGradient>
    <linearGradient id="paint6_linear_7410_3614" x1="49.0098" y1="40.69" x2="28.1231" y2="40.69" gradientUnits="userSpaceOnUse">
      <stop stop-color="#139ED9"></stop>
      <stop offset="0.12" stop-color="#1395CF"></stop>
      <stop offset="0.34" stop-color="#147EB4"></stop>
      <stop offset="0.61" stop-color="#165988"></stop>
      <stop offset="0.93" stop-color="#18264C"></stop>
      <stop offset="1" stop-color="#191B3F"></stop>
    </linearGradient>
    <linearGradient id="paint7_linear_7410_3614" x1="42.4455" y1="31.0052" x2="35.6421" y2="38.5019" gradientUnits="userSpaceOnUse">
      <stop stop-color="#139ED9"></stop>
      <stop offset="0.14" stop-color="#1391C9"></stop>
      <stop offset="0.42" stop-color="#156EA1"></stop>
      <stop offset="0.81" stop-color="#173861"></stop>
      <stop offset="1" stop-color="#191B3F"></stop>
    </linearGradient>
    <linearGradient id="paint8_linear_7410_3614" x1="44.9793" y1="26.0218" x2="34.7743" y2="31.3518" gradientUnits="userSpaceOnUse">
      <stop stop-color="#8ED3FF"></stop>
      <stop offset="0.11" stop-color="#86C7F3"></stop>
      <stop offset="0.3" stop-color="#74AAD4"></stop>
      <stop offset="0.56" stop-color="#557AA2"></stop>
      <stop offset="0.87" stop-color="#2B385D"></stop>
      <stop offset="1" stop-color="#191B3F"></stop>
    </linearGradient>
    <linearGradient id="paint9_linear_7410_3614" x1="24.787" y1="19.0236" x2="22.6637" y2="38.8919" gradientUnits="userSpaceOnUse">
      <stop stop-color="#139ED9"></stop>
      <stop offset="0.12" stop-color="#1394CE"></stop>
      <stop offset="0.33" stop-color="#147BB0"></stop>
      <stop offset="0.6" stop-color="#165381"></stop>
      <stop offset="0.93" stop-color="#191B3F"></stop>
    </linearGradient>
    <linearGradient id="paint10_linear_7410_3614" x1="27.0402" y1="19.2187" x2="27.4952" y2="22.837" gradientUnits="userSpaceOnUse">
      <stop stop-color="#139ED9"></stop>
      <stop offset="0.12" stop-color="#1394CE"></stop>
      <stop offset="0.33" stop-color="#147BB0"></stop>
      <stop offset="0.6" stop-color="#165381"></stop>
      <stop offset="0.93" stop-color="#191B3F"></stop>
    </linearGradient>
    <linearGradient id="paint11_linear_7410_3614" x1="28.8168" y1="22.2305" x2="23.0968" y2="34.0171" gradientUnits="userSpaceOnUse">
      <stop stop-color="#139ED9"></stop>
      <stop offset="0.12" stop-color="#1394CE"></stop>
      <stop offset="0.33" stop-color="#147BB0"></stop>
      <stop offset="0.6" stop-color="#165381"></stop>
      <stop offset="0.93" stop-color="#191B3F"></stop>
    </linearGradient>
    <linearGradient id="paint12_linear_7410_3614" x1="37.9813" y1="41.1447" x2="14.603" y2="41.1447" gradientUnits="userSpaceOnUse">
      <stop stop-color="#191B3F"></stop>
      <stop offset="0.06" stop-color="#18274D"></stop>
      <stop offset="0.29" stop-color="#16517F"></stop>
      <stop offset="0.5" stop-color="#1472A6"></stop>
      <stop offset="0.7" stop-color="#138AC2"></stop>
      <stop offset="0.87" stop-color="#1398D3"></stop>
      <stop offset="1" stop-color="#139ED9"></stop>
    </linearGradient>
    <linearGradient id="paint13_linear_7410_3614" x1="29.684" y1="35.88" x2="21.4074" y2="34.8617" gradientUnits="userSpaceOnUse">
      <stop stop-color="#139ED9"></stop>
      <stop offset="0.13" stop-color="#1391C9"></stop>
      <stop offset="0.39" stop-color="#156EA1"></stop>
      <stop offset="0.75" stop-color="#173861"></stop>
      <stop offset="0.93" stop-color="#191B3F"></stop>
    </linearGradient>
    <linearGradient id="paint14_linear_7410_3614" x1="30.962" y1="27.1054" x2="21.1903" y2="32.197" gradientUnits="userSpaceOnUse">
      <stop stop-color="#8ED3FF"></stop>
      <stop offset="0.11" stop-color="#89CCF8"></stop>
      <stop offset="0.26" stop-color="#7EBAE5"></stop>
      <stop offset="0.44" stop-color="#6B9CC6"></stop>
      <stop offset="0.65" stop-color="#50729A"></stop>
      <stop offset="0.87" stop-color="#2F3E63"></stop>
      <stop offset="1" stop-color="#191B3F"></stop>
    </linearGradient>
  </defs>
</svg>
