<?xml version="1.0" encoding="UTF-8"?>
<svg xmlns="http://www.w3.org/2000/svg" width="72" height="72" viewBox="0 0 72 72" fill="none">
  <g id="student form">
    <path id="Vector" d="M56.3698 8.10059H15.6298C14.089 8.10059 12.8398 9.34971 12.8398 10.8906V61.0806C12.8398 62.6215 14.089 63.8706 15.6298 63.8706H56.3698C57.9107 63.8706 59.1598 62.6215 59.1598 61.0806V10.8906C59.1598 9.34971 57.9107 8.10059 56.3698 8.10059Z" fill="url(#paint0_linear_7410_7950)"></path>
    <path id="Vector_2" d="M16.6484 57.9006C16.6484 59.1606 17.6684 60.1506 18.9584 60.1506H56.8484C58.1084 60.1506 59.1584 59.1306 59.1584 57.9006V10.5906C59.1584 9.21059 58.0184 8.10059 56.6084 8.10059H19.5884C17.9684 8.10059 16.6484 9.39059 16.6484 10.9806V57.9006Z" fill="url(#paint1_linear_7410_7950)"></path>
    <path id="Vector_3" d="M53.7895 35.8502H29.6695C29.1595 35.8502 28.7695 35.4302 28.7695 34.9202C28.7695 34.4102 29.1595 33.9902 29.6695 33.9902H53.7895C54.2995 33.9902 54.6895 34.4102 54.6895 34.9202C54.6895 35.4302 54.2995 35.8502 53.7895 35.8502Z" fill="url(#paint2_linear_7410_7950)"></path>
    <path id="Vector_4" d="M53.7895 43.6198H29.6695C29.1595 43.6198 28.7695 43.1998 28.7695 42.6898C28.7695 42.1798 29.1595 41.7598 29.6695 41.7598H53.7895C54.2995 41.7598 54.6895 42.1798 54.6895 42.6898C54.6895 43.1998 54.2995 43.6198 53.7895 43.6198Z" fill="url(#paint3_linear_7410_7950)"></path>
    <path id="Vector_5" d="M53.7895 51.36H29.6695C29.1595 51.36 28.7695 50.94 28.7695 50.43C28.7695 49.92 29.1595 49.5 29.6695 49.5H53.7895C54.2995 49.5 54.6895 49.92 54.6895 50.43C54.6895 50.94 54.2995 51.36 53.7895 51.36Z" fill="url(#paint4_linear_7410_7950)"></path>
    <path id="Vector_6" d="M23.8509 37.6501C25.309 37.6501 26.4909 36.4681 26.4909 35.0101C26.4909 33.5521 25.309 32.3701 23.8509 32.3701C22.3929 32.3701 21.2109 33.5521 21.2109 35.0101C21.2109 36.4681 22.3929 37.6501 23.8509 37.6501Z" fill="url(#paint5_linear_7410_7950)"></path>
    <path id="Vector_7" d="M23.8509 45.3611C25.309 45.3611 26.4909 44.1791 26.4909 42.7211C26.4909 41.263 25.309 40.0811 23.8509 40.0811C22.3929 40.0811 21.2109 41.263 21.2109 42.7211C21.2109 44.1791 22.3929 45.3611 23.8509 45.3611Z" fill="url(#paint6_linear_7410_7950)"></path>
    <path id="Vector_8" d="M23.8509 53.1013C25.309 53.1013 26.4909 51.9193 26.4909 50.4613C26.4909 49.0033 25.309 47.8213 23.8509 47.8213C22.3929 47.8213 21.2109 49.0033 21.2109 50.4613C21.2109 51.9193 22.3929 53.1013 23.8509 53.1013Z" fill="url(#paint7_linear_7410_7950)"></path>
    <path id="Vector_9" d="M37.4697 13.5H22.1397C21.6095 13.5 21.1797 13.9298 21.1797 14.46V27.18C21.1797 27.7102 21.6095 28.14 22.1397 28.14H37.4697C37.9999 28.14 38.4297 27.7102 38.4297 27.18V14.46C38.4297 13.9298 37.9999 13.5 37.4697 13.5Z" fill="url(#paint8_linear_7410_7950)"></path>
    <path id="Vector_10" d="M54.2687 17.3698H42.1188C41.6088 17.3698 41.2188 16.9498 41.2188 16.4398C41.2188 15.9298 41.6088 15.5098 42.1188 15.5098H54.2687C54.7787 15.5098 55.1687 15.9298 55.1687 16.4398C55.1687 16.9498 54.7787 17.3698 54.2687 17.3698Z" fill="url(#paint9_linear_7410_7950)"></path>
    <path id="Vector_11" d="M54.2687 22.1393H42.1188C41.6088 22.1393 41.2188 21.7193 41.2188 21.2093C41.2188 20.6993 41.6088 20.2793 42.1188 20.2793H54.2687C54.7787 20.2793 55.1687 20.6993 55.1687 21.2093C55.1687 21.7193 54.7787 22.1393 54.2687 22.1393Z" fill="url(#paint10_linear_7410_7950)"></path>
    <path id="Vector_12" d="M54.2687 26.5807H42.1188C41.6088 26.5807 41.2188 26.1607 41.2188 25.6507C41.2188 25.1407 41.6088 24.7207 42.1188 24.7207H54.2687C54.7787 24.7207 55.1687 25.1407 55.1687 25.6507C55.1687 26.1607 54.7787 26.5807 54.2687 26.5807Z" fill="url(#paint11_linear_7410_7950)"></path>
  </g>
  <defs>
    <linearGradient id="paint0_linear_7410_7950" x1="59.9998" y1="4.95058" x2="8.75984" y2="71.2506" gradientUnits="userSpaceOnUse">
      <stop stop-color="#139ED9"></stop>
      <stop offset="0.392534" stop-color="#1398D2"></stop>
      <stop offset="0.762805" stop-color="#164E7B"></stop>
      <stop offset="0.96" stop-color="#182248"></stop>
      <stop offset="1" stop-color="#191B3F"></stop>
    </linearGradient>
    <linearGradient id="paint1_linear_7410_7950" x1="42.8084" y1="10.3806" x2="26.8784" y2="88.6206" gradientUnits="userSpaceOnUse">
      <stop stop-color="#8ED3FF"></stop>
      <stop offset="0.11" stop-color="#86C7F3"></stop>
      <stop offset="0.3" stop-color="#74AAD4"></stop>
      <stop offset="0.56" stop-color="#557AA2"></stop>
      <stop offset="0.87" stop-color="#2B385D"></stop>
      <stop offset="1" stop-color="#191B3F"></stop>
    </linearGradient>
    <linearGradient id="paint2_linear_7410_7950" x1="26.4595" y1="33.6602" x2="85.8895" y2="38.6402" gradientUnits="userSpaceOnUse">
      <stop stop-color="#191B3F"></stop>
      <stop offset="1" stop-color="#139ED9"></stop>
    </linearGradient>
    <linearGradient id="paint3_linear_7410_7950" x1="25.9795" y1="41.3998" x2="85.4095" y2="46.3798" gradientUnits="userSpaceOnUse">
      <stop stop-color="#191B3F"></stop>
      <stop offset="1" stop-color="#139ED9"></stop>
    </linearGradient>
    <linearGradient id="paint4_linear_7410_7950" x1="25.9795" y1="49.11" x2="85.4095" y2="54.12" gradientUnits="userSpaceOnUse">
      <stop stop-color="#191B3F"></stop>
      <stop offset="1" stop-color="#139ED9"></stop>
    </linearGradient>
    <linearGradient id="paint5_linear_7410_7950" x1="25.8909" y1="38.2501" x2="21.8109" y2="31.7701" gradientUnits="userSpaceOnUse">
      <stop stop-color="#191B3F"></stop>
      <stop offset="0.8" stop-color="#139ED9"></stop>
    </linearGradient>
    <linearGradient id="paint6_linear_7410_7950" x1="25.8909" y1="45.9611" x2="21.8109" y2="39.4811" gradientUnits="userSpaceOnUse">
      <stop stop-color="#191B3F"></stop>
      <stop offset="0.86" stop-color="#139ED9"></stop>
    </linearGradient>
    <linearGradient id="paint7_linear_7410_7950" x1="25.8909" y1="53.6713" x2="21.8109" y2="47.2213" gradientUnits="userSpaceOnUse">
      <stop stop-color="#191B3F"></stop>
      <stop offset="1" stop-color="#139ED9"></stop>
    </linearGradient>
    <linearGradient id="paint8_linear_7410_7950" x1="18.3297" y1="12.15" x2="43.3497" y2="31.05" gradientUnits="userSpaceOnUse">
      <stop stop-color="#139ED9"></stop>
      <stop offset="1" stop-color="#191B3F"></stop>
    </linearGradient>
    <linearGradient id="paint9_linear_7410_7950" x1="39.9288" y1="15.7498" x2="71.9687" y2="18.4498" gradientUnits="userSpaceOnUse">
      <stop stop-color="#191B3F"></stop>
      <stop offset="1" stop-color="#139ED9"></stop>
    </linearGradient>
    <linearGradient id="paint10_linear_7410_7950" x1="39.9288" y1="20.5193" x2="71.9687" y2="23.2193" gradientUnits="userSpaceOnUse">
      <stop stop-color="#191B3F"></stop>
      <stop offset="1" stop-color="#139ED9"></stop>
    </linearGradient>
    <linearGradient id="paint11_linear_7410_7950" x1="39.9288" y1="24.9907" x2="71.9687" y2="27.6907" gradientUnits="userSpaceOnUse">
      <stop stop-color="#191B3F"></stop>
      <stop offset="1" stop-color="#139ED9"></stop>
    </linearGradient>
  </defs>
</svg>
