<?xml version="1.0" encoding="UTF-8"?>
<svg xmlns="http://www.w3.org/2000/svg" width="52" height="52" viewBox="0 0 52 52" fill="none">
  <g id="time">
    <path id="Vector" d="M34.8406 47.1687C34.6456 47.1687 34.4722 47.0604 34.3856 46.8654C34.2772 46.6054 34.3856 46.302 34.6456 46.1937C42.2289 42.792 47.1039 35.2304 47.1039 26.932C47.1039 15.297 37.6356 5.8287 26.0006 5.8287C14.3656 5.8287 4.89724 15.297 4.89724 26.9537C4.89724 32.327 6.91224 37.4404 10.5739 41.362C10.7689 41.557 10.7472 41.882 10.5522 42.077C10.3572 42.272 10.0322 42.2504 9.83724 42.0554C6.00224 37.9387 3.87891 32.587 3.87891 26.9537C3.87891 14.7554 13.8022 4.83203 26.0006 4.83203C38.1989 4.83203 48.1222 14.7554 48.1222 26.9537C48.1222 35.642 42.9872 43.572 35.0572 47.1254C34.9922 47.147 34.9272 47.1687 34.8406 47.1687Z" fill="url(#paint0_linear_7410_3634)"></path>
    <path id="Vector_2" d="M26.0003 40.5601C33.8381 40.5601 40.1919 34.2063 40.1919 26.3684C40.1919 18.5306 33.8381 12.1768 26.0003 12.1768C18.1624 12.1768 11.8086 18.5306 11.8086 26.3684C11.8086 34.2063 18.1624 40.5601 26.0003 40.5601Z" fill="url(#paint1_linear_7410_3634)"></path>
    <path id="Vector_3" d="M26 26.3684V12.1768C33.8433 12.1768 40.1917 18.5251 40.1917 26.3684C40.1917 28.9901 39.4767 31.4601 38.22 33.5834L26 26.3684Z" fill="url(#paint2_linear_7410_3634)"></path>
    <path id="Vector_4" d="M25.9793 44.9798C23.271 44.9798 20.5843 44.3731 18.071 43.1598C13.6726 41.0364 10.3576 37.3314 8.75428 32.7381C7.58428 29.3798 7.41095 25.7831 8.25595 22.3381C8.32095 22.0998 8.53762 21.9698 8.77595 22.0348C9.01428 22.0998 9.14428 22.3164 9.07928 22.5548C8.27762 25.8264 8.42928 29.2714 9.55595 32.4781C12.7193 41.5348 22.686 46.3231 31.7426 43.1598C36.141 41.6214 39.651 38.4798 41.6876 34.2764C43.7026 30.0948 43.9626 25.3498 42.4243 20.9731C40.3876 15.1664 35.3826 10.8114 29.3376 9.64144C29.0993 9.59811 28.9476 9.38144 28.991 9.14311C29.0343 8.90477 29.251 8.75311 29.4893 8.79644C35.8376 10.0314 41.081 14.6031 43.226 20.6914C44.8293 25.3064 44.5693 30.2464 42.446 34.6448C40.3226 39.0431 36.6176 42.3581 32.0243 43.9614C30.0526 44.6548 28.016 45.0014 25.9793 45.0014V44.9798Z" fill="url(#paint3_linear_7410_3634)"></path>
    <path id="Vector_5" d="M42.7259 22.5769C43.8388 22.5769 44.7409 21.6747 44.7409 20.5619C44.7409 19.449 43.8388 18.5469 42.7259 18.5469C41.6131 18.5469 40.7109 19.449 40.7109 20.5619C40.7109 21.6747 41.6131 22.5769 42.7259 22.5769Z" fill="url(#paint4_linear_7410_3634)"></path>
    <path id="Vector_6" d="M15.513 9.83664C16.6259 9.83664 17.528 8.93449 17.528 7.82164C17.528 6.70879 16.6259 5.80664 15.513 5.80664C14.4002 5.80664 13.498 6.70879 13.498 7.82164C13.498 8.93449 14.4002 9.83664 15.513 9.83664Z" fill="url(#paint5_linear_7410_3634)"></path>
    <path id="Vector_7" d="M23.2923 46.3015C24.4052 46.3015 25.3073 45.3993 25.3073 44.2865C25.3073 43.1736 24.4052 42.2715 23.2923 42.2715C22.1795 42.2715 21.2773 43.1736 21.2773 44.2865C21.2773 45.3993 22.1795 46.3015 23.2923 46.3015Z" fill="url(#paint6_linear_7410_3634)"></path>
  </g>
  <defs>
    <linearGradient id="paint0_linear_7410_3634" x1="33.6489" y1="-3.94297" x2="20.0422" y2="51.047" gradientUnits="userSpaceOnUse">
      <stop stop-color="#139ED9"></stop>
      <stop offset="0.24" stop-color="#139BD6"></stop>
      <stop offset="0.4" stop-color="#1394CD"></stop>
      <stop offset="0.54" stop-color="#1487BE"></stop>
      <stop offset="0.66" stop-color="#1475A9"></stop>
      <stop offset="0.78" stop-color="#155D8D"></stop>
      <stop offset="0.89" stop-color="#17416B"></stop>
      <stop offset="0.99" stop-color="#181F44"></stop>
      <stop offset="1" stop-color="#191B3F"></stop>
    </linearGradient>
    <linearGradient id="paint1_linear_7410_3634" x1="42.0986" y1="48.2734" x2="15.6436" y2="12.3068" gradientUnits="userSpaceOnUse">
      <stop stop-color="#191B3F"></stop>
      <stop offset="0.2" stop-color="#173E69"></stop>
      <stop offset="0.46" stop-color="#156799"></stop>
      <stop offset="0.69" stop-color="#1485BB"></stop>
      <stop offset="0.88" stop-color="#1397D1"></stop>
      <stop offset="1" stop-color="#139ED9"></stop>
    </linearGradient>
    <linearGradient id="paint2_linear_7410_3634" x1="39.065" y1="21.2334" x2="19.8467" y2="25.8051" gradientUnits="userSpaceOnUse">
      <stop stop-color="#8ED3FF"></stop>
      <stop offset="0.11" stop-color="#86C7F3"></stop>
      <stop offset="0.3" stop-color="#74AAD4"></stop>
      <stop offset="0.56" stop-color="#557AA2"></stop>
      <stop offset="0.87" stop-color="#2B385D"></stop>
      <stop offset="1" stop-color="#191B3F"></stop>
    </linearGradient>
    <linearGradient id="paint3_linear_7410_3634" x1="38.5026" y1="47.1681" x2="15.0809" y2="8.83977" gradientUnits="userSpaceOnUse">
      <stop stop-color="#139ED9"></stop>
      <stop offset="0.21" stop-color="#139BD5"></stop>
      <stop offset="0.37" stop-color="#1393CC"></stop>
      <stop offset="0.51" stop-color="#1484BB"></stop>
      <stop offset="0.65" stop-color="#1571A4"></stop>
      <stop offset="0.78" stop-color="#165785"></stop>
      <stop offset="0.9" stop-color="#173861"></stop>
      <stop offset="1" stop-color="#191B3F"></stop>
    </linearGradient>
    <linearGradient id="paint4_linear_7410_3634" x1="44.9576" y1="17.5285" x2="40.6026" y2="23.4652" gradientUnits="userSpaceOnUse">
      <stop offset="0.31" stop-color="#139ED9"></stop>
      <stop offset="1" stop-color="#191B3F"></stop>
    </linearGradient>
    <linearGradient id="paint5_linear_7410_3634" x1="16.4447" y1="6.15331" x2="13.9314" y2="10.6383" gradientUnits="userSpaceOnUse">
      <stop stop-color="#139ED9"></stop>
      <stop offset="1" stop-color="#191B3F"></stop>
    </linearGradient>
    <linearGradient id="paint6_linear_7410_3634" x1="24.0507" y1="42.5532" x2="21.559" y2="48.2732" gradientUnits="userSpaceOnUse">
      <stop stop-color="#139ED9"></stop>
      <stop offset="1" stop-color="#191B3F"></stop>
    </linearGradient>
  </defs>
</svg>
