<?xml version="1.0" encoding="UTF-8"?>
<svg xmlns="http://www.w3.org/2000/svg" width="52" height="52" viewBox="0 0 52 52" fill="none">
  <g id="calendar one year">
    <path id="Vector" d="M44.8072 10.1396H7.19383C6.00918 10.1396 5.04883 11.1 5.04883 12.2846V43.983C5.04883 45.1676 6.00918 46.128 7.19383 46.128H44.8072C45.9918 46.128 46.9522 45.1676 46.9522 43.983V12.2846C46.9522 11.1 45.9918 10.1396 44.8072 10.1396Z" fill="url(#paint0_linear_7410_3647)"></path>
    <path id="Vector_2" d="M42.3151 16.5537H10.0318C9.09844 16.5537 8.3418 17.3104 8.3418 18.2437V41.232C8.3418 42.1654 9.09844 42.922 10.0318 42.922H42.3151C43.2485 42.922 44.0051 42.1654 44.0051 41.232V18.2437C44.0051 17.3104 43.2485 16.5537 42.3151 16.5537Z" fill="url(#paint1_linear_7410_3647)"></path>
    <path id="Vector_3" d="M14.7339 7.73522C14.7339 6.7181 13.9142 5.89355 12.9031 5.89355C11.892 5.89355 11.0723 6.7181 11.0723 7.73522V12.6969C11.0723 13.714 11.892 14.5386 12.9031 14.5386C13.9142 14.5386 14.7339 13.714 14.7339 12.6969V7.73522Z" fill="url(#paint2_linear_7410_3647)"></path>
    <path id="Vector_4" d="M40.2574 7.73522C40.2574 6.7181 39.4377 5.89355 38.4265 5.89355C37.4154 5.89355 36.5957 6.7181 36.5957 7.73522V12.6969C36.5957 13.714 37.4154 14.5386 38.4265 14.5386C39.4377 14.5386 40.2574 13.714 40.2574 12.6969V7.73522Z" fill="url(#paint3_linear_7410_3647)"></path>
    <path id="Vector_5" d="M25.5011 32.5429V22.0129H23.7461L24.3961 19.7812H27.9278V32.5429H25.4794H25.5011Z" fill="black"></path>
    <path id="Vector_6" d="M25.5011 32.5429V22.0129H23.7461L24.3961 19.7812H27.9278V32.5429H25.4794H25.5011Z" fill="url(#paint4_linear_7410_3647)"></path>
    <path id="Vector_7" d="M20.3667 35.1436H21.45L19.6517 38.0252V40.4086H18.7417V38.0252L16.9434 35.1436H18.0267L19.2184 37.0286L20.41 35.1436H20.3667Z" fill="black"></path>
    <path id="Vector_8" d="M22.1641 40.4086V35.1436H25.4574V36.0536H23.0741V37.1152H24.9591V38.0252H23.0741V39.4769H25.4574V40.3869H22.1641V40.4086Z" fill="black"></path>
    <path id="Vector_9" d="M27.9498 35.1436H29.0115L30.9182 40.4086H29.9432L29.5965 39.4769H27.3432L26.9965 40.4086H26.0215L27.9282 35.1436H27.9498ZM27.6898 38.5669H29.2715L28.4698 36.4002L27.6898 38.5669Z" fill="black"></path>
    <path id="Vector_10" d="M31.5685 40.4086V35.1436H33.5835C33.8652 35.1436 34.1252 35.2086 34.3635 35.3602C34.6019 35.5119 34.7752 35.6852 34.9052 35.9236C35.0352 36.1619 35.1002 36.4219 35.1002 36.7252C35.1002 36.9636 35.0569 37.1802 34.9702 37.3752C34.8835 37.5702 34.7535 37.7436 34.6019 37.8952C34.4502 38.0469 34.2769 38.1552 34.0602 38.2202L35.3169 40.3869H34.2552L33.0419 38.2852H32.4569V40.3869H31.5469L31.5685 40.4086ZM32.4785 37.3969H33.4752C33.6052 37.3969 33.7352 37.3536 33.8435 37.3102C33.9519 37.2452 34.0385 37.1586 34.1035 37.0502C34.1685 36.9419 34.2119 36.8119 34.2119 36.6819C34.2119 36.5519 34.1685 36.4219 34.1035 36.3136C34.0385 36.2052 33.9519 36.1186 33.8435 36.0536C33.7352 35.9886 33.6269 35.9669 33.4752 35.9669H32.4785V37.4186V37.3969Z" fill="black"></path>
    <path id="Vector_11" d="M20.3667 35.1436H21.45L19.6517 38.0252V40.4086H18.7417V38.0252L16.9434 35.1436H18.0267L19.2184 37.0286L20.41 35.1436H20.3667Z" fill="url(#paint5_linear_7410_3647)"></path>
    <path id="Vector_12" d="M22.1641 40.4086V35.1436H25.4574V36.0536H23.0741V37.1152H24.9591V38.0252H23.0741V39.4769H25.4574V40.3869H22.1641V40.4086Z" fill="url(#paint6_linear_7410_3647)"></path>
    <path id="Vector_13" d="M27.9498 35.1436H29.0115L30.9182 40.4086H29.9432L29.5965 39.4769H27.3432L26.9965 40.4086H26.0215L27.9282 35.1436H27.9498ZM27.6898 38.5669H29.2715L28.4698 36.4002L27.6898 38.5669Z" fill="url(#paint7_linear_7410_3647)"></path>
    <path id="Vector_14" d="M31.5685 40.4086V35.1436H33.5835C33.8652 35.1436 34.1252 35.2086 34.3635 35.3602C34.6019 35.5119 34.7752 35.6852 34.9052 35.9236C35.0352 36.1619 35.1002 36.4219 35.1002 36.7252C35.1002 36.9636 35.0569 37.1802 34.9702 37.3752C34.8835 37.5702 34.7535 37.7436 34.6019 37.8952C34.4502 38.0469 34.2769 38.1552 34.0602 38.2202L35.3169 40.3869H34.2552L33.0419 38.2852H32.4569V40.3869H31.5469L31.5685 40.4086ZM32.4785 37.3969H33.4752C33.6052 37.3969 33.7352 37.3536 33.8435 37.3102C33.9519 37.2452 34.0385 37.1586 34.1035 37.0502C34.1685 36.9419 34.2119 36.8119 34.2119 36.6819C34.2119 36.5519 34.1685 36.4219 34.1035 36.3136C34.0385 36.2052 33.9519 36.1186 33.8435 36.0536C33.7352 35.9886 33.6269 35.9669 33.4752 35.9669H32.4785V37.4186V37.3969Z" fill="url(#paint8_linear_7410_3647)"></path>
  </g>
  <defs>
    <linearGradient id="paint0_linear_7410_3647" x1="43.8972" y1="4.96132" x2="5.67716" y2="54.4263" gradientUnits="userSpaceOnUse">
      <stop stop-color="#139ED9"></stop>
      <stop offset="0.13" stop-color="#1398D2"></stop>
      <stop offset="0.3" stop-color="#1389C1"></stop>
      <stop offset="0.5" stop-color="#1570A3"></stop>
      <stop offset="0.72" stop-color="#164E7B"></stop>
      <stop offset="0.96" stop-color="#182248"></stop>
      <stop offset="1" stop-color="#191B3F"></stop>
    </linearGradient>
    <linearGradient id="paint1_linear_7410_3647" x1="35.7501" y1="13.4987" x2="-1.10487" y2="75.942" gradientUnits="userSpaceOnUse">
      <stop stop-color="#8ED3FF"></stop>
      <stop offset="0.11" stop-color="#86C7F3"></stop>
      <stop offset="0.3" stop-color="#74AAD4"></stop>
      <stop offset="0.56" stop-color="#557AA2"></stop>
      <stop offset="0.87" stop-color="#2B385D"></stop>
      <stop offset="1" stop-color="#191B3F"></stop>
    </linearGradient>
    <linearGradient id="paint2_linear_7410_3647" x1="13.6073" y1="6.73855" x2="11.2889" y2="18.1352" gradientUnits="userSpaceOnUse">
      <stop stop-color="#139ED9"></stop>
      <stop offset="1" stop-color="#191B3F"></stop>
    </linearGradient>
    <linearGradient id="paint3_linear_7410_3647" x1="39.1307" y1="6.73855" x2="36.8124" y2="18.1352" gradientUnits="userSpaceOnUse">
      <stop stop-color="#139ED9"></stop>
      <stop offset="1" stop-color="#191B3F"></stop>
    </linearGradient>
    <linearGradient id="paint4_linear_7410_3647" x1="23.7244" y1="26.1729" x2="27.9278" y2="26.1729" gradientUnits="userSpaceOnUse">
      <stop stop-color="#139ED9"></stop>
      <stop offset="1" stop-color="#191B3F"></stop>
    </linearGradient>
    <linearGradient id="paint5_linear_7410_3647" x1="-0.0649642" y1="35.5552" x2="34.6233" y2="38.4802" gradientUnits="userSpaceOnUse">
      <stop stop-color="#139ED9"></stop>
      <stop offset="1" stop-color="#191B3F"></stop>
    </linearGradient>
    <linearGradient id="paint6_linear_7410_3647" x1="-0.0659476" y1="35.5552" x2="34.6224" y2="38.4802" gradientUnits="userSpaceOnUse">
      <stop stop-color="#139ED9"></stop>
      <stop offset="1" stop-color="#191B3F"></stop>
    </linearGradient>
    <linearGradient id="paint7_linear_7410_3647" x1="-0.0651875" y1="35.5552" x2="34.6232" y2="38.4802" gradientUnits="userSpaceOnUse">
      <stop stop-color="#139ED9"></stop>
      <stop offset="1" stop-color="#191B3F"></stop>
    </linearGradient>
    <linearGradient id="paint8_linear_7410_3647" x1="-0.0647779" y1="35.5552" x2="34.6235" y2="38.4802" gradientUnits="userSpaceOnUse">
      <stop stop-color="#139ED9"></stop>
      <stop offset="1" stop-color="#191B3F"></stop>
    </linearGradient>
  </defs>
</svg>
