<?xml version="1.0" encoding="UTF-8"?>
<svg xmlns="http://www.w3.org/2000/svg" width="73" height="72" viewBox="0 0 73 72" fill="none">
  <path d="M36.3993 19.2594C38.5593 17.3094 38.8593 11.3994 35.6493 9.35942C27.8793 4.43942 15.6093 6.35942 16.1793 18.2394C16.7493 30.1194 25.5093 31.8894 25.6593 32.1294C25.8093 32.3694 36.3693 19.2594 36.3693 19.2594H36.3993Z" fill="url(#paint0_linear_7410_7970)"></path>
  <path d="M34.2089 38.6093C34.2089 38.6093 42.5789 42.9593 44.0489 48.5093C44.6489 50.7893 44.5591 56.61 44.4691 58.5C44.4391 59.19 43.9891 59.79 43.3591 59.97C41.4691 60.57 36.6391 61.62 26.1091 61.62C14.9791 61.62 8.58911 60.66 6.54911 60.09C5.94911 59.91 5.52911 59.43 5.40911 58.83C4.83911 55.83 4.32887 44.4593 8.73887 41.8793C14.0189 38.7893 18.4289 37.5293 18.4289 37.5293L34.2389 38.5793L34.2089 38.6093Z" fill="url(#paint1_linear_7410_7970)"></path>
  <path d="M31.6872 32.1296C31.6872 32.1296 30.9672 36.2396 34.1772 38.5796C36.1214 39.9968 27.666 43.5 27.666 43.5C26.166 43.5 21.0526 40.1204 18.3672 37.5296C18.3672 37.5296 22.1472 38.0696 22.5672 29.7596C22.8972 23.2496 31.6872 32.0996 31.6872 32.0996V32.1296Z" fill="url(#paint2_linear_7410_7970)"></path>
  <path d="M25.9546 17.0089C29.0146 16.4989 33.8146 16.7989 35.1946 14.9389C36.5746 13.0789 36.7246 16.7689 35.7046 22.7989C34.6846 28.8289 33.8146 33.6289 30.2146 33.8089C22.5346 34.1689 22.7746 27.9289 22.2646 26.2489C21.7546 24.5689 19.8346 27.3589 19.7746 23.4589C19.7146 19.5589 22.0546 18.5989 22.6246 19.9489C23.1946 21.2989 22.3246 17.6089 25.9246 17.0089H25.9546Z" fill="url(#paint3_linear_7410_7970)"></path>
  <path d="M65.2591 31.6201H40.6591C39.7644 31.6201 39.0391 32.3454 39.0391 33.2401V63.7201C39.0391 64.6148 39.7644 65.3401 40.6591 65.3401H65.2591C66.1538 65.3401 66.8791 64.6148 66.8791 63.7201V33.2401C66.8791 32.3454 66.1538 31.6201 65.2591 31.6201Z" fill="url(#paint4_linear_7410_7970)"></path>
  <path d="M56.08 56.3704H42.88C42.55 56.3704 42.25 56.1004 42.25 55.7403C42.25 55.3803 42.52 55.1104 42.88 55.1104H56.08C56.41 55.1104 56.71 55.3803 56.71 55.7403C56.71 56.1004 56.44 56.3704 56.08 56.3704Z" fill="url(#paint5_linear_7410_7970)"></path>
  <path d="M60.6693 41.9276C60.6693 42.7239 59.7053 43.3526 59.4539 44.0651C59.2024 44.7776 59.6215 45.8672 59.2024 46.4959C58.7833 47.1246 57.6098 47.0407 56.9811 47.5018C56.3525 47.9628 56.0591 49.0525 55.3466 49.3039C54.6341 49.5554 53.754 48.801 52.9577 48.801C52.1614 48.801 51.2813 49.5135 50.5688 49.3039C49.8563 49.0944 49.521 47.9628 48.9342 47.5018C48.3475 47.0407 47.174 47.1246 46.713 46.4959C46.252 45.8672 46.713 44.8195 46.4615 44.0651C46.21 43.3107 45.2461 42.7239 45.2461 41.9276C45.2461 41.1313 46.21 40.5027 46.4615 39.7902C46.713 39.0777 46.2939 37.988 46.713 37.3593C47.1321 36.7307 48.3056 36.8145 48.9342 36.3535C49.5629 35.8925 49.8563 34.8028 50.5688 34.5513C51.2813 34.2999 52.1614 35.0542 52.9577 35.0542C53.754 35.0542 54.6341 34.3418 55.3466 34.5513C56.0591 34.7609 56.3944 35.8925 56.9811 36.3535C57.5679 36.8145 58.7414 36.7307 59.2024 37.3593C59.6634 37.988 59.2024 39.0358 59.4539 39.7902C59.7053 40.5446 60.6693 41.1313 60.6693 41.9276Z" fill="url(#paint6_linear_7410_7970)"></path>
  <path d="M53.1659 37.5703L54.5909 40.4203L57.7761 40.8813L55.471 43.1025L56.0159 46.2459L53.1659 44.779L50.3579 46.2459L50.9028 43.1025L48.5977 40.8813L51.7829 40.4203L53.1659 37.5703Z" fill="url(#paint7_linear_7410_7970)"></path>
  <path d="M67.39 47.64L54.16 54.99C53.74 55.23 53.26 55.23 52.84 54.99L38.53 47.58C38.17 47.4 37.75 47.64 37.75 48.06V65.28C37.75 65.88 38.23 66.39 38.86 66.39H67.09C67.69 66.39 68.2 65.91 68.2 65.28V48.06C68.2 47.67 67.78 47.4 67.42 47.61L67.39 47.64Z" fill="url(#paint8_linear_7410_7970)"></path>
  <defs>
    <linearGradient id="paint0_linear_7410_7970" x1="30.1593" y1="9.20942" x2="17.8593" y2="34.4994" gradientUnits="userSpaceOnUse">
      <stop stop-color="#139ED9"></stop>
      <stop offset="0.13" stop-color="#1394CE"></stop>
      <stop offset="0.35" stop-color="#147BB0"></stop>
      <stop offset="0.64" stop-color="#165381"></stop>
      <stop offset="0.99" stop-color="#181C40"></stop>
      <stop offset="1" stop-color="#191B3F"></stop>
    </linearGradient>
    <linearGradient id="paint1_linear_7410_7970" x1="41.168" y1="57" x2="5.01911" y2="48.6593" gradientUnits="userSpaceOnUse">
      <stop stop-color="#191B3F"></stop>
      <stop offset="0.12" stop-color="#17345D"></stop>
      <stop offset="0.32" stop-color="#165A89"></stop>
      <stop offset="0.634665" stop-color="#1477AB"></stop>
      <stop offset="0.86" stop-color="#1399D3"></stop>
      <stop offset="1" stop-color="#139ED9"></stop>
    </linearGradient>
    <linearGradient id="paint2_linear_7410_7970" x1="18.666" y1="37.5" x2="36.666" y2="33" gradientUnits="userSpaceOnUse">
      <stop stop-color="#139ED9"></stop>
      <stop offset="0.14" stop-color="#1391C9"></stop>
      <stop offset="0.42" stop-color="#156EA1"></stop>
      <stop offset="0.81" stop-color="#173861"></stop>
      <stop offset="1" stop-color="#191B3F"></stop>
    </linearGradient>
    <linearGradient id="paint3_linear_7410_7970" x1="36.9046" y1="20.9089" x2="17.5846" y2="30.9589" gradientUnits="userSpaceOnUse">
      <stop stop-color="#8ED3FF"></stop>
      <stop offset="0.11" stop-color="#86C7F3"></stop>
      <stop offset="0.3" stop-color="#74AAD4"></stop>
      <stop offset="0.56" stop-color="#557AA2"></stop>
      <stop offset="0.87" stop-color="#2B385D"></stop>
      <stop offset="1" stop-color="#191B3F"></stop>
    </linearGradient>
    <linearGradient id="paint4_linear_7410_7970" x1="67.4491" y1="29.7301" x2="34.0591" y2="72.9601" gradientUnits="userSpaceOnUse">
      <stop stop-color="#139ED9"></stop>
      <stop offset="0.26" stop-color="#139BD6"></stop>
      <stop offset="0.42" stop-color="#1394CD"></stop>
      <stop offset="0.55" stop-color="#1388BF"></stop>
      <stop offset="0.67" stop-color="#1476AB"></stop>
      <stop offset="0.78" stop-color="#156090"></stop>
      <stop offset="0.88" stop-color="#17446F"></stop>
      <stop offset="0.98" stop-color="#18244A"></stop>
      <stop offset="1" stop-color="#191B3F"></stop>
    </linearGradient>
    <linearGradient id="paint5_linear_7410_7970" x1="40.69" y1="55.0204" x2="73.81" y2="57.8103" gradientUnits="userSpaceOnUse">
      <stop stop-color="#191B3F"></stop>
      <stop offset="1" stop-color="#139ED9"></stop>
    </linearGradient>
    <linearGradient id="paint6_linear_7410_7970" x1="54.8856" y1="34.2999" x2="49.521" y2="55.381" gradientUnits="userSpaceOnUse">
      <stop stop-color="#8ED3FF"></stop>
      <stop offset="0.11" stop-color="#86C7F3"></stop>
      <stop offset="0.3" stop-color="#74AAD4"></stop>
      <stop offset="0.56" stop-color="#557AA2"></stop>
      <stop offset="0.87" stop-color="#2B385D"></stop>
      <stop offset="1" stop-color="#191B3F"></stop>
    </linearGradient>
    <linearGradient id="paint7_linear_7410_7970" x1="55.4291" y1="37.0255" x2="51.4895" y2="45.2819" gradientUnits="userSpaceOnUse">
      <stop stop-color="#139ED9"></stop>
      <stop offset="1" stop-color="#191B3F"></stop>
    </linearGradient>
    <linearGradient id="paint8_linear_7410_7970" x1="52.48" y1="50.43" x2="54.1" y2="71.43" gradientUnits="userSpaceOnUse">
      <stop stop-color="#8ED3FF"></stop>
      <stop offset="0.11" stop-color="#86C7F3"></stop>
      <stop offset="0.3" stop-color="#74AAD4"></stop>
      <stop offset="0.56" stop-color="#557AA2"></stop>
      <stop offset="0.87" stop-color="#2B385D"></stop>
      <stop offset="1" stop-color="#191B3F"></stop>
    </linearGradient>
  </defs>
</svg>
